# xmcd
#
# Track frame offsets: 
#        150
#        11190
#        24942
#        41812
#        53650
#        71907
#        88272
#        103912
#        127685
#        143152
#        159280
#
# Disc length: 2188 seconds
#
# Revision: 0
# Processed by: cddbd v1.5.1PL0 Copyright (c) Steve Scherf et al.
# Submitted via: ExactAudioCopy v0.90b4
#
DISCID=90088a0b
DTITLE=Frontline - Never Again
DYEAR=1992
DGENRE=Country
TTITLE0=You're Darn Right
TTITLE1=It'll Be Me
TTITLE2=Never Again
TTITLE3=Don't Get Above Your Raisin'
TTITLE4=Dreams To Remember
TTITLE5=Birth Of Rock'n'roll
TTITLE6=(She Used To Be) Somebody's Baby
TTITLE7=Oh So Close
TTITLE8=Hold Watcha Got
TTITLE9=Darling Blue
TTITLE10=Commercial Song (Bonus Track)
EXTD=
EXTT0=
EXTT1=
EXTT2=
EXTT3=
EXTT4=
EXTT5=
EXTT6=
EXTT7=
EXTT8=
EXTT9=
EXTT10=
PLAYORDER=
